<svg xmlns="http://www.w3.org/2000/svg" xmlns:xlink="http://www.w3.org/1999/xlink" width="256" zoomAndPan="magnify" viewBox="0 0 192 191.999996" height="256" preserveAspectRatio="xMidYMid meet" version="1.0"><defs><clipPath id="72c52d561d"><path d="M 18 0 L 174 0 C 178.773438 0 183.351562 1.894531 186.726562 5.273438 C 190.105469 8.648438 192 13.226562 192 18 L 192 174 C 192 183.941406 183.941406 192 174 192 L 18 192 C 13.226562 192 8.648438 190.105469 5.273438 186.726562 C 1.894531 183.351562 0 178.773438 0 174 L 0 18 C 0 8.058594 8.058594 0 18 0 Z M 18 0 " clip-rule="nonzero"/></clipPath><clipPath id="e5a9c5bdf8"><path d="M 22.421875 22.421875 L 116.695312 22.421875 L 116.695312 36.21875 L 22.421875 36.21875 Z M 22.421875 22.421875 " clip-rule="nonzero"/></clipPath><clipPath id="9279f3de81"><path d="M 0.421875 0.421875 L 94.695312 0.421875 L 94.695312 14.21875 L 0.421875 14.21875 Z M 0.421875 0.421875 " clip-rule="nonzero"/></clipPath><clipPath id="455322be41"><rect x="0" width="95" y="0" height="15"/></clipPath><clipPath id="a64d00a943"><path d="M 102.898438 22.421875 L 116.695312 22.421875 L 116.695312 169.578125 L 102.898438 169.578125 Z M 102.898438 22.421875 " clip-rule="nonzero"/></clipPath><clipPath id="6aedcdfb45"><path d="M 0.898438 0.421875 L 14.695312 0.421875 L 14.695312 147.578125 L 0.898438 147.578125 Z M 0.898438 0.421875 " clip-rule="nonzero"/></clipPath><clipPath id="3ca0ff177b"><rect x="0" width="15" y="0" height="148"/></clipPath><clipPath id="04dee66d7b"><path d="M 75.304688 50.015625 L 89.101562 50.015625 L 89.101562 169.578125 L 75.304688 169.578125 Z M 75.304688 50.015625 " clip-rule="nonzero"/></clipPath><clipPath id="b82a90bb22"><path d="M 0.304688 0.015625 L 14.101562 0.015625 L 14.101562 119.578125 L 0.304688 119.578125 Z M 0.304688 0.015625 " clip-rule="nonzero"/></clipPath><clipPath id="1e1b531f23"><rect x="0" width="15" y="0" height="120"/></clipPath><clipPath id="3b0727586d"><path d="M 130.488281 22.421875 L 169.578125 22.421875 L 169.578125 36.21875 L 130.488281 36.21875 Z M 130.488281 22.421875 " clip-rule="nonzero"/></clipPath><clipPath id="6058b44eec"><path d="M 0.488281 0.421875 L 39.578125 0.421875 L 39.578125 14.21875 L 0.488281 14.21875 Z M 0.488281 0.421875 " clip-rule="nonzero"/></clipPath><clipPath id="74c93c018d"><rect x="0" width="40" y="0" height="15"/></clipPath></defs><g clip-path="url(#72c52d561d)"><rect x="-19.2" width="230.4" fill="#ebeff5" y="-19.2" height="230.399995" fill-opacity="1"/></g><g clip-path="url(#e5a9c5bdf8)"><g transform="matrix(1, 0, 0, 1, 22, 22)"><g clip-path="url(#455322be41)"><g clip-path="url(#9279f3de81)"><path fill="#000000" d="M 0.421875 0.421875 L 94.675781 0.421875 L 94.675781 14.21875 L 0.421875 14.21875 Z M 0.421875 0.421875 " fill-opacity="1" fill-rule="nonzero"/></g></g></g></g><g clip-path="url(#a64d00a943)"><g transform="matrix(1, 0, 0, 1, 102, 22)"><g clip-path="url(#3ca0ff177b)"><g clip-path="url(#6aedcdfb45)"><path fill="#000000" d="M 0.898438 0.421875 L 14.695312 0.421875 L 14.695312 147.59375 L 0.898438 147.59375 Z M 0.898438 0.421875 " fill-opacity="1" fill-rule="nonzero"/></g></g></g></g><g clip-path="url(#04dee66d7b)"><g transform="matrix(1, 0, 0, 1, 75, 50)"><g clip-path="url(#1e1b531f23)"><g clip-path="url(#b82a90bb22)"><path fill="#000000" d="M 0.304688 0.015625 L 14.101562 0.015625 L 14.101562 119.59375 L 0.304688 119.59375 Z M 0.304688 0.015625 " fill-opacity="1" fill-rule="nonzero"/></g></g></g></g><g clip-path="url(#3b0727586d)"><g transform="matrix(1, 0, 0, 1, 130, 22)"><g clip-path="url(#74c93c018d)"><g clip-path="url(#6058b44eec)"><path fill="#000000" d="M 0.488281 0.421875 L 39.558594 0.421875 L 39.558594 14.21875 L 0.488281 14.21875 Z M 0.488281 0.421875 " fill-opacity="1" fill-rule="nonzero"/></g></g></g></g></svg>