<svg xmlns="http://www.w3.org/2000/svg" xmlns:xlink="http://www.w3.org/1999/xlink" width="256" zoomAndPan="magnify" viewBox="0 0 192 191.999996" height="256" preserveAspectRatio="xMidYMid meet" version="1.0"><defs><clipPath id="bcae8acd82"><rect x="0" width="123" y="0" height="18"/></clipPath><clipPath id="5ba2759b1b"><path d="M 0 0 L 18 0 L 18 192 L 0 192 Z M 0 0 " clip-rule="nonzero"/></clipPath><clipPath id="16b526ecd9"><rect x="0" width="18" y="0" height="192"/></clipPath><clipPath id="ff36d7c534"><path d="M 0 0 L 18 0 L 18 156 L 0 156 Z M 0 0 " clip-rule="nonzero"/></clipPath><clipPath id="53f9d70cb4"><rect x="0" width="18" y="0" height="156"/></clipPath><clipPath id="1b21447fc1"><rect x="0" width="51" y="0" height="18"/></clipPath></defs><g transform="matrix(1, 0, 0, 1, 0, 0)"><g clip-path="url(#bcae8acd82)"><path fill="#073763" d="M 0 0 L 122.976562 0 L 122.976562 18 L 0 18 Z M 0 0 " fill-opacity="1" fill-rule="nonzero"/></g></g><g transform="matrix(1, 0, 0, 1, 105, 0)"><g clip-path="url(#16b526ecd9)"><g clip-path="url(#5ba2759b1b)"><rect x="-147.24" width="276.48" fill="#073763" height="276.479994" y="-42.239999" fill-opacity="1"/></g></g></g><g transform="matrix(1, 0, 0, 1, 69, 36)"><g clip-path="url(#53f9d70cb4)"><g clip-path="url(#ff36d7c534)"><rect x="-111.24" width="276.48" fill="#073763" height="276.479994" y="-78.239999" fill-opacity="1"/></g></g></g><g transform="matrix(1, 0, 0, 1, 141, 0)"><g clip-path="url(#1b21447fc1)"><path fill="#073763" d="M 0 0 L 50.976562 0 L 50.976562 18 L 0 18 Z M 0 0 " fill-opacity="1" fill-rule="nonzero"/></g></g></svg>